<svg width="24" height="24" viewBox="0 0 24 24" fill="none" xmlns="http://www.w3.org/2000/svg">
<path fill-rule="evenodd" clip-rule="evenodd" d="M8.69942 1.24999C8.7131 1.25 8.72697 1.25 8.74105 1.25H15.2588C15.2729 1.25 15.2868 1.25 15.3005 1.24999C15.5203 1.24993 15.6889 1.24989 15.8362 1.2657C17.1904 1.41102 18.2269 2.52303 18.2898 3.87007C19.5325 4.24109 20.4025 5.42489 20.3417 6.75727C20.7402 6.93702 21.093 7.185 21.3949 7.52978C22.0113 8.23383 22.1995 9.09537 22.2067 10.1006C22.2137 11.0723 22.0498 12.3015 21.8455 13.8337L21.431 16.9422C21.2713 18.1401 21.1421 19.1096 20.9411 19.8687C20.7319 20.659 20.4231 21.3141 19.8437 21.8214C19.2642 22.3288 18.574 22.5483 17.7631 22.6512C16.984 22.75 16.0059 22.75 14.7974 22.75H9.20255C7.9941 22.75 7.016 22.75 6.23694 22.6512C5.42601 22.5483 4.73579 22.3288 4.15633 21.8214C3.57687 21.3141 3.26806 20.659 3.05889 19.8687C2.85794 19.1096 2.72869 18.1401 2.56899 16.9422L2.15452 13.8337C1.95021 12.3015 1.78629 11.0723 1.79326 10.1006C1.80048 9.09537 1.9887 8.23383 2.60511 7.52978C2.90697 7.185 3.25984 6.93702 3.65828 6.75726C3.59754 5.42492 4.46745 4.24116 5.71012 3.8701C5.773 2.52305 6.80949 1.41102 8.16366 1.2657C8.31101 1.24989 8.47957 1.24993 8.69942 1.24999ZM7.23217 3.75H16.7677C16.6612 3.22631 16.2264 2.81618 15.6762 2.75714C15.6199 2.7511 15.5397 2.75 15.2588 2.75H8.74105C8.4602 2.75 8.38 2.7511 8.32371 2.75714C7.77351 2.81618 7.33869 3.22631 7.23217 3.75ZM5.18091 6.36743C6.12325 6.24996 7.31968 6.24998 8.79418 6.25H15.2058C16.6803 6.24998 17.8768 6.24996 18.8191 6.36743C18.697 5.74073 18.1453 5.25 17.4619 5.25H6.53809C5.85472 5.25 5.30299 5.74073 5.18091 6.36743ZM5.25501 7.87067C4.43062 7.98662 4.01365 8.19809 3.73368 8.51787C3.45371 8.83765 3.2992 9.2789 3.29322 10.1114C3.2871 10.9652 3.43526 12.0897 3.64915 13.6939L3.70587 14.1192L4.12728 13.814C5.21476 13.0264 6.82153 13.0651 7.85571 13.9211L11.6939 17.0981C12.0566 17.3983 12.6817 17.4544 13.1328 17.192L13.3996 17.0368C14.6758 16.2944 16.3862 16.3727 17.5638 17.25L19.6414 18.7976C19.7438 18.2418 19.8356 17.5586 19.9508 16.6939L20.3508 13.6939C20.5647 12.0897 20.7129 10.9652 20.7068 10.1114C20.7008 9.2789 20.5463 8.83765 20.2663 8.51787C19.9863 8.19809 19.5694 7.98662 18.745 7.87067C17.8995 7.75175 16.7653 7.75 15.1469 7.75H8.8531C7.23472 7.75 6.1005 7.75175 5.25501 7.87067ZM19.1677 20.3153L16.6677 18.4529C15.9851 17.9444 14.9252 17.8847 14.1539 18.3334L13.8871 18.4886C12.9152 19.0539 11.6045 18.9712 10.7374 18.2536L6.89927 15.0767C6.40128 14.6645 5.55035 14.6355 5.00713 15.0289L3.93106 15.8082L4.04915 16.6939C4.21714 17.9538 4.33519 18.8285 4.50895 19.4849C4.67729 20.1209 4.87541 20.4573 5.14442 20.6929C5.41343 20.9284 5.77315 21.0803 6.42576 21.1631C7.0994 21.2486 7.98202 21.25 9.2531 21.25H14.7469C16.018 21.25 16.9006 21.2486 17.5742 21.1631C18.2268 21.0803 18.5866 20.9284 18.8556 20.6929C18.9718 20.5912 19.0747 20.4706 19.1677 20.3153ZM16.5 10.75C16.0858 10.75 15.75 11.0858 15.75 11.5C15.75 11.9142 16.0858 12.25 16.5 12.25C16.9142 12.25 17.25 11.9142 17.25 11.5C17.25 11.0858 16.9142 10.75 16.5 10.75ZM14.25 11.5C14.25 10.2574 15.2574 9.25 16.5 9.25C17.7426 9.25 18.75 10.2574 18.75 11.5C18.75 12.7426 17.7426 13.75 16.5 13.75C15.2574 13.75 14.25 12.7426 14.25 11.5Z"/>
</svg>
