<svg width="24" height="24" viewBox="0 0 24 24" fill="none" xmlns="http://www.w3.org/2000/svg">
<path fill-rule="evenodd" clip-rule="evenodd" d="M22.75 7C22.75 7.41421 22.4142 7.75 22 7.75L2 7.75C1.58579 7.75 1.25 7.41421 1.25 7C1.25 6.58579 1.58579 6.25 2 6.25L22 6.25C22.4142 6.25 22.75 6.58579 22.75 7Z"/>
<path fill-rule="evenodd" clip-rule="evenodd" d="M22.75 12C22.75 12.4142 22.4142 12.75 22 12.75L8 12.75C7.58579 12.75 7.25 12.4142 7.25 12C7.25 11.5858 7.58579 11.25 8 11.25L22 11.25C22.4142 11.25 22.75 11.5858 22.75 12Z"/>
<path fill-rule="evenodd" clip-rule="evenodd" d="M22.75 17C22.75 17.4142 22.4142 17.75 22 17.75H14C13.5858 17.75 13.25 17.4142 13.25 17C13.25 16.5858 13.5858 16.25 14 16.25H22C22.4142 16.25 22.75 16.5858 22.75 17Z"/>
</svg>
