<svg width="24" height="24" viewBox="0 0 24 24" fill="none" xmlns="http://www.w3.org/2000/svg">
<path fill-rule="evenodd" clip-rule="evenodd" d="M6.85927 1.24999C6.88902 1.25 6.91918 1.25 6.94975 1.25L6.98674 1.25C7.33817 1.24997 7.56431 1.24996 7.7854 1.27063C8.73668 1.35959 9.63903 1.73335 10.3746 2.34311C10.5455 2.48483 10.7055 2.64475 10.9539 2.89328L11.5303 3.46967C12.376 4.31538 12.7012 4.63108 13.0768 4.84003C13.2948 4.96133 13.526 5.05712 13.7659 5.1255C14.1793 5.24332 14.6324 5.25 15.8284 5.25L16.253 5.25C17.5259 5.24998 18.5521 5.24997 19.364 5.35204C20.2054 5.45783 20.9204 5.68356 21.5077 6.21183C21.6061 6.3003 21.6997 6.39392 21.7882 6.49229C22.3164 7.07964 22.5422 7.79457 22.648 8.63599C22.75 9.44788 22.75 10.4741 22.75 11.747V14.0564C22.75 15.8942 22.75 17.3498 22.5969 18.489C22.4392 19.6614 22.1071 20.6104 21.3588 21.3588C20.6104 22.1071 19.6614 22.4392 18.489 22.5969C17.3498 22.75 15.8942 22.75 14.0564 22.75H9.94359C8.10583 22.75 6.65019 22.75 5.51098 22.5969C4.33856 22.4392 3.38961 22.1071 2.64124 21.3588C1.89288 20.6104 1.56076 19.6614 1.40314 18.489C1.24997 17.3498 1.24999 15.8942 1.25 14.0564L1.25 6.94975C1.25 6.91918 1.25 6.88902 1.24999 6.85927C1.24988 6.06336 1.24981 5.55683 1.33235 5.11933C1.69489 3.19787 3.19787 1.69488 5.11933 1.33235C5.55684 1.24981 6.06336 1.24988 6.85927 1.24999ZM6.94975 2.75C6.03311 2.75 5.67871 2.75328 5.39744 2.80635C4.08275 3.05439 3.0544 4.08275 2.80635 5.39744C2.75328 5.67871 2.75 6.03311 2.75 6.94975V14C2.75 15.9068 2.75159 17.2615 2.88976 18.2892C3.02503 19.2952 3.27869 19.8749 3.7019 20.2981C4.12511 20.7213 4.70476 20.975 5.71085 21.1102C6.73851 21.2484 8.09318 21.25 10 21.25H14C15.9068 21.25 17.2615 21.2484 18.2892 21.1102C19.2952 20.975 19.8749 20.7213 20.2981 20.2981C20.7213 19.8749 20.975 19.2952 21.1102 18.2892C21.2484 17.2615 21.25 15.9068 21.25 14V11.7979C21.25 10.4621 21.2486 9.53048 21.1597 8.82311C21.0731 8.13446 20.9141 7.76355 20.6729 7.49537C20.6198 7.43635 20.5637 7.38018 20.5046 7.3271C20.2365 7.0859 19.8655 6.9269 19.1769 6.84032C18.4695 6.75139 17.5379 6.75 16.2021 6.75H15.8284C15.7912 6.75 15.7545 6.75001 15.7182 6.75001C14.6702 6.75023 13.9944 6.75037 13.3548 6.56805C13.0041 6.46809 12.6661 6.32809 12.3475 6.15082C11.7663 5.82746 11.2885 5.34948 10.5476 4.60831C10.522 4.58263 10.496 4.55664 10.4697 4.53033L9.91942 3.98008C9.63614 3.6968 9.52776 3.58949 9.41729 3.49792C8.91402 3.08072 8.29662 2.82498 7.64574 2.76412C7.50288 2.75076 7.35037 2.75 6.94975 2.75ZM12.25 10C12.25 9.58578 12.5858 9.25 13 9.25H18C18.4142 9.25 18.75 9.58578 18.75 10C18.75 10.4142 18.4142 10.75 18 10.75H13C12.5858 10.75 12.25 10.4142 12.25 10Z"/>
</svg>
