<svg width="24" height="24" viewBox="0 0 24 24" fill="none" xmlns="http://www.w3.org/2000/svg">
<path fill-rule="evenodd" clip-rule="evenodd" d="M17.7971 3.35674C18.441 2.86713 19.3233 2.68911 20.1838 3.06597C20.894 3.37702 21.5116 3.74918 21.9628 4.1896C22.416 4.63199 22.75 5.19494 22.75 5.85983V18.5763C22.75 19.3687 22.2796 20.0114 21.686 20.4919C21.0861 20.9775 20.2637 21.3816 19.314 21.7068C17.4072 22.3596 14.8213 22.75 12 22.75C9.17869 22.75 6.59281 22.3596 4.686 21.7068C3.73627 21.3816 2.91391 20.9775 2.31397 20.4919C1.72038 20.0114 1.25 19.3687 1.25 18.5763V5.85983C1.25 5.19494 1.58399 4.63199 2.0372 4.1896C2.48839 3.74918 3.10596 3.37702 3.81617 3.06597C4.67668 2.68911 5.55899 2.86713 6.20295 3.35674C6.83685 3.83871 7.25 4.62473 7.25 5.50218V8.11016C8.64413 8.37837 10.2649 8.53354 12 8.53354C13.7351 8.53354 15.3559 8.37837 16.75 8.11016V5.50218C16.75 4.62473 17.1631 3.83871 17.7971 3.35674ZM18.25 7.75336C19.134 7.49705 19.8512 7.19449 20.3705 6.87145C21.0928 6.42219 21.25 6.05633 21.25 5.85983C21.25 5.73015 21.1887 5.53015 20.915 5.263C20.6393 4.99387 20.1984 4.70989 19.5821 4.43998C19.2679 4.3024 18.9588 4.3578 18.7049 4.5508C18.441 4.75146 18.25 5.09726 18.25 5.50218V7.75336ZM21.25 8.08983C21.2211 8.10853 21.192 8.12697 21.1628 8.14513C20.279 8.69494 19.065 9.13502 17.6653 9.45121C16.0264 9.82141 14.0801 10.0335 12 10.0335C9.91994 10.0335 7.9736 9.82141 6.33475 9.45121C4.93499 9.13502 3.72104 8.69494 2.83719 8.14513C2.80798 8.12697 2.77891 8.10853 2.75 8.08982V17.8424L5.79302 14.9947L7.165 13.8463C8.1622 13.0117 9.65619 13.0575 10.5965 13.9569L13.9176 17.1339C14.1922 17.3966 14.6395 17.4373 14.9659 17.2179L15.1967 17.0627C16.3608 16.2801 17.9311 16.3683 18.9937 17.2831L21.0374 19.0425C21.2064 18.8414 21.25 18.6832 21.25 18.5763V8.08983ZM19.7551 19.9179L18.015 18.4198C17.468 17.9489 16.6413 17.899 16.0336 18.3075L15.8028 18.4627C14.8979 19.071 13.6701 18.973 12.8807 18.2178L9.55962 15.0409C9.17417 14.6722 8.54158 14.6502 8.12777 14.9966L6.78763 16.1183L3.31313 19.3698C3.72644 19.6887 4.34957 20.0061 5.17187 20.2877C6.88434 20.874 9.29846 21.25 12 21.25C14.7015 21.25 17.1157 20.874 18.8281 20.2877C19.1723 20.1698 19.4815 20.0457 19.7551 19.9179ZM2.75 5.85983C2.75 6.05633 2.90725 6.42219 3.62948 6.87145C4.1488 7.19449 4.86599 7.49705 5.75 7.75336V5.50218C5.75 5.09726 5.55899 4.75146 5.29508 4.5508C5.04123 4.3578 4.73207 4.3024 4.41793 4.43998C3.80164 4.70989 3.36068 4.99387 3.08497 5.263C2.81128 5.53015 2.75 5.73015 2.75 5.85983ZM18 12.25C17.5858 12.25 17.25 12.5858 17.25 13C17.25 13.4142 17.5858 13.75 18 13.75C18.4142 13.75 18.75 13.4142 18.75 13C18.75 12.5858 18.4142 12.25 18 12.25ZM15.75 13C15.75 11.7574 16.7574 10.75 18 10.75C19.2426 10.75 20.25 11.7574 20.25 13C20.25 14.2426 19.2426 15.25 18 15.25C16.7574 15.25 15.75 14.2426 15.75 13Z"/>
</svg>
