<svg width="24" height="24" viewBox="0 0 24 24" fill="none" xmlns="http://www.w3.org/2000/svg">
<g id="Outline / Essentional, UI / Text Align Left">
<path id="Vector" fill-rule="evenodd" clip-rule="evenodd" d="M22.75 7C22.75 7.41421 22.4142 7.75 22 7.75L2 7.75C1.58579 7.75 1.25 7.41421 1.25 7C1.25 6.58579 1.58579 6.25 2 6.25L22 6.25C22.4142 6.25 22.75 6.58579 22.75 7Z"/>
<path id="Vector_2" fill-rule="evenodd" clip-rule="evenodd" d="M16.75 12C16.75 12.4142 16.4142 12.75 16 12.75L2 12.75C1.58579 12.75 1.25 12.4142 1.25 12C1.25 11.5858 1.58579 11.25 2 11.25L16 11.25C16.4142 11.25 16.75 11.5858 16.75 12Z"/>
<path id="Vector_3" fill-rule="evenodd" clip-rule="evenodd" d="M10.75 17C10.75 17.4142 10.4142 17.75 10 17.75H2C1.58579 17.75 1.25 17.4142 1.25 17C1.25 16.5858 1.58579 16.25 2 16.25H10C10.4142 16.25 10.75 16.5858 10.75 17Z"/>
</g>
</svg>
