<svg width="24" height="24" viewBox="0 0 24 24" fill="none" xmlns="http://www.w3.org/2000/svg">
<path d="M19.6361 5.33998C18.1907 4.70497 16.6648 4.25448 15.0973 4C14.8828 4.36793 14.6888 4.74649 14.5159 5.13408C12.8463 4.89266 11.1484 4.89266 9.47881 5.13408C9.30587 4.74653 9.1118 4.36798 8.8974 4C7.32897 4.25662 5.80205 4.70819 4.35518 5.3433C1.48276 9.42134 0.70409 13.3981 1.09342 17.3184C2.77558 18.511 4.6584 19.418 6.66003 20C7.11074 19.4183 7.50956 18.8012 7.85226 18.1553C7.20135 17.922 6.57311 17.6342 5.97481 17.2951C6.13227 17.1856 6.28627 17.0726 6.43508 16.9631C8.17601 17.7487 10.0761 18.156 12 18.156C13.9238 18.156 15.8239 17.7487 17.5648 16.9631C17.7154 17.0809 17.8694 17.1939 18.0251 17.2951C17.4257 17.6347 16.7963 17.9231 16.1442 18.1569C16.4865 18.8026 16.8853 19.4192 17.3364 20C19.3398 19.4204 21.224 18.5138 22.9065 17.3201C23.3633 12.7738 22.1261 8.83354 19.6361 5.33998ZM8.34542 14.9074C7.26047 14.9074 6.36414 13.9626 6.36414 12.8003C6.36414 11.638 7.22933 10.6849 8.34196 10.6849C9.45458 10.6849 10.344 11.638 10.325 12.8003C10.3059 13.9626 9.45112 14.9074 8.34542 14.9074ZM15.6545 14.9074C14.5678 14.9074 13.675 13.9626 13.675 12.8003C13.675 11.638 14.5402 10.6849 15.6545 10.6849C16.7689 10.6849 17.6514 11.638 17.6323 12.8003C17.6133 13.9626 16.7602 14.9074 15.6545 14.9074Z" stroke="white" stroke-width="1.5"/>
</svg>
