<svg width="24" height="24" viewBox="0 0 24 24" fill="none" xmlns="http://www.w3.org/2000/svg">
<path fill-rule="evenodd" clip-rule="evenodd" d="M18.9059 3.92196C17.892 2.88649 16.446 2.50454 15.0305 2.90732C14.6321 3.02068 14.2172 2.78961 14.1038 2.39121C13.9905 1.99281 14.2215 1.57795 14.6199 1.46459C16.5581 0.913095 18.5746 1.43962 19.9776 2.87252C20.2674 3.16848 20.2624 3.64333 19.9665 3.93312C19.6705 4.22292 19.1957 4.21792 18.9059 3.92196ZM11.1902 3.30841C10.9762 2.94134 10.3524 2.71872 9.71869 3.08087C9.08734 3.4417 8.9763 4.07774 9.18663 4.43843L11.7123 8.76955C11.9209 9.12736 11.8 9.58659 11.4422 9.79524C11.0844 10.0039 10.6252 9.88299 10.4165 9.52517L7.89085 5.19405C7.89073 5.19383 7.89098 5.19427 7.89085 5.19405L7.04897 3.75034C6.83491 3.38327 6.2111 3.16065 5.57742 3.5228C4.94607 3.88363 4.83503 4.51967 5.04536 4.88036L8.83385 11.377C9.0425 11.7349 8.92159 12.1941 8.56377 12.4027C8.20595 12.6114 7.74673 12.4905 7.53807 12.1327L5.8543 9.24524C5.64024 8.87817 5.01643 8.65555 4.38275 9.0177C3.7514 9.37853 3.64036 10.0146 3.85069 10.3753L7.63918 16.8719C9.24811 19.631 13.2185 20.5264 16.5855 18.6021C19.9501 16.6792 21.1461 12.8377 19.5409 10.085L17.0153 5.75389C16.8012 5.38682 16.1774 5.1642 15.5437 5.52635C14.9124 5.88718 14.8013 6.52322 15.0117 6.88391L16.6954 9.77132C16.7962 9.94413 16.8238 10.15 16.772 10.3433C16.7202 10.5365 16.5934 10.701 16.4197 10.8003C14.8772 11.6818 14.4045 13.3863 15.0798 14.5444C15.2885 14.9022 15.1676 15.3614 14.8097 15.5701C14.4519 15.7787 13.9927 15.6578 13.7841 15.3C12.7248 13.4836 13.3916 11.2369 15.0474 9.92289L11.1902 3.30841ZM13.9184 5.00919L12.486 2.55279C11.7702 1.32519 10.1629 1.0993 8.9744 1.77855C8.60811 1.98789 8.29656 2.27485 8.06166 2.60778C7.26161 1.72689 5.88378 1.62003 4.83313 2.22048C3.64229 2.90107 3.03 4.40199 3.74958 5.63598L4.75175 7.35455C4.36671 7.39637 3.98481 7.51745 3.63846 7.71539C2.44762 8.39597 1.83533 9.8969 2.55491 11.1309L6.3434 17.6276C8.45414 21.2472 13.4079 22.1458 17.3297 19.9045C21.2539 17.6618 22.9512 12.9554 20.8367 9.32939L18.3111 4.99827C17.5952 3.77068 15.988 3.54478 14.7994 4.22404C14.4494 4.42408 14.1494 4.695 13.9184 5.00919ZM4.41389 17.8591C4.77171 17.6504 5.23093 17.7713 5.43959 18.1291C6.26645 19.5471 7.53054 20.6194 9.08942 21.3151C9.46767 21.4839 9.63745 21.9274 9.46863 22.3057C9.29981 22.6839 8.85632 22.8537 8.47807 22.6849C6.66656 21.8764 5.14676 20.6047 4.14381 18.8848C3.93515 18.5269 4.05607 18.0677 4.41389 17.8591Z"/>
</svg>
