<svg width="24" height="24" viewBox="0 0 24 24" fill="none" xmlns="http://www.w3.org/2000/svg">
<g id="Outline / Essentional, UI / Bolt">
<path id="Vector" fill-rule="evenodd" clip-rule="evenodd" d="M20.5279 10.3731C20.1572 9.73114 19.4779 9.52011 18.8294 9.42944C18.1757 9.33803 17.3008 9.33806 16.2426 9.33809L16.1824 9.33809C15.5523 9.33809 15.1403 9.33188 14.8402 9.29015C14.5688 9.25241 14.4825 9.19655 14.4456 9.16397C14.4187 9.13587 14.3706 9.07014 14.3379 8.83317C14.2993 8.55376 14.2976 8.17061 14.2976 7.55655V7.18206C14.2977 5.59454 14.2977 4.3228 14.1755 3.41611C14.0608 2.56505 13.7882 1.6092 12.844 1.31986C11.9164 1.0356 11.1384 1.64515 10.5337 2.27356C9.88942 2.94301 9.12413 3.97846 8.16596 5.2749L5.02896 9.5192C4.41863 10.3449 3.90984 11.0332 3.60669 11.6024C3.3028 12.173 3.08164 12.8504 3.41872 13.5263L3.41989 13.5288L3.42344 13.536L3.42748 13.544L3.43146 13.5517L3.4358 13.5599L3.44023 13.568L3.44441 13.5755L3.44884 13.5833L3.45289 13.5902L3.45438 13.5927C3.82188 14.2291 4.49825 14.4519 5.1526 14.5518C5.82693 14.6548 6.72671 14.6614 7.81795 14.6614C8.45456 14.6614 8.86048 14.6628 9.1586 14.7008C9.42195 14.7344 9.50071 14.7862 9.53447 14.816C9.56438 14.8473 9.61682 14.9202 9.6538 15.1658C9.69612 15.4468 9.70276 15.8359 9.70275 16.443L9.70274 16.8173C9.7027 18.4049 9.70266 19.6766 9.82483 20.5833C9.9395 21.4344 10.2121 22.3902 11.1563 22.6796C12.0839 22.9639 12.8619 22.3543 13.4667 21.7259C14.1109 21.0564 14.8762 20.021 15.8344 18.7245L18.9338 14.5312C19.5646 13.6778 20.0834 12.9648 20.3893 12.3713C20.6887 11.7906 20.8976 11.1092 20.5636 10.4395L20.5624 10.4371L20.5589 10.4299L20.5548 10.4218L20.5508 10.4141L20.5465 10.4059L20.542 10.3978L20.5378 10.3902L20.5334 10.3824L20.5293 10.3754L20.5279 10.3731ZM11.6145 3.31367C11.0465 3.90386 10.3387 4.85878 9.335 6.21684L6.27286 10.3599C5.61517 11.2497 5.17513 11.8485 4.93062 12.3076C4.81161 12.531 4.76693 12.672 4.75421 12.7573C4.74635 12.81 4.75115 12.8338 4.75742 12.8491C4.78161 12.8847 4.88663 12.9939 5.379 13.069C5.9169 13.1512 6.69032 13.1614 7.81795 13.1614L7.86392 13.1614C8.44106 13.1614 8.94393 13.1613 9.3483 13.2129C9.78148 13.2681 10.2118 13.3937 10.568 13.7288L10.5739 13.7343L10.5796 13.7399C10.9296 14.0834 11.0719 14.5094 11.1371 14.9424C11.1994 15.3563 11.2028 15.8654 11.2028 16.443L11.2027 16.7526C11.2027 18.4195 11.2044 19.5889 11.3114 20.383C11.3647 20.7784 11.4363 21.0103 11.505 21.1399C11.5564 21.2369 11.586 21.2433 11.5943 21.2451L11.5958 21.2454L11.5973 21.2459C11.6078 21.2495 11.6446 21.2623 11.7583 21.2051C11.9003 21.1336 12.1032 20.9795 12.3858 20.6858C12.9538 20.0956 13.6616 19.1407 14.6654 17.7826L17.7275 13.6396C18.3815 12.7548 18.8172 12.1473 19.0561 11.684C19.2608 11.2868 19.2385 11.1523 19.2249 11.1166C19.2024 11.0838 19.1016 10.9821 18.6217 10.915C18.0846 10.8399 17.3161 10.8381 16.1824 10.8381C15.5796 10.8381 15.0567 10.8347 14.6336 10.7759C14.1968 10.7151 13.7655 10.5836 13.4123 10.2515L13.4065 10.246L13.4008 10.2404C13.0476 9.8937 12.9114 9.46825 12.852 9.03838C12.7975 8.64405 12.7976 8.15573 12.7976 7.60489L12.7976 7.24685C12.7976 5.57995 12.7959 4.4105 12.6889 3.61643C12.6356 3.22104 12.564 2.98911 12.4954 2.85959C12.4439 2.76252 12.4143 2.75617 12.406 2.75438L12.4045 2.75403L12.403 2.75352C12.3925 2.74991 12.3557 2.73719 12.242 2.79439C12.1 2.86584 11.8972 3.01993 11.6145 3.31367Z"/>
</g>
</svg>
